<svg width="46" height="46" viewBox="0 0 46 46" fill="none" xmlns="http://www.w3.org/2000/svg">
<path d="M22.9932 14.878C25.1684 14.878 26.9317 13.1145 26.9317 10.939C26.9317 8.76356 25.1684 7 22.9932 7C20.818 7 19.0547 8.76356 19.0547 10.939C19.0547 13.1145 20.818 14.878 22.9932 14.878Z" fill="white"/>
<path d="M25.0469 20.1913V34.2966C25.0469 34.4085 25.0733 34.5188 25.1241 34.6186C25.1749 34.7183 25.2486 34.8046 25.3392 34.8704C25.4297 34.9361 25.5346 34.9795 25.6451 34.997C25.7556 35.0145 25.8688 35.0056 25.9752 34.9709L31.7648 33.0861C32.1922 32.9473 32.5646 32.6766 32.8287 32.3129C33.0928 31.9493 33.2349 31.5113 33.2346 31.0618V16.9601C33.2346 16.8482 33.2082 16.7379 33.1574 16.6381C33.1065 16.5384 33.0329 16.4521 32.9423 16.3863C32.8518 16.3206 32.7469 16.2772 32.6364 16.2597C32.5258 16.2422 32.4127 16.2511 32.3063 16.2858L26.5167 18.1702C26.0898 18.3089 25.7177 18.5791 25.4537 18.9421C25.1897 19.3051 25.0473 19.7424 25.0469 20.1913Z" fill="white"/>
<path d="M12.7656 16.9416V38.2911C12.7657 38.403 12.7922 38.5133 12.843 38.613C12.8939 38.7126 12.9675 38.7989 13.0581 38.8646C13.1486 38.9303 13.2534 38.9737 13.364 38.9912C13.4745 39.0086 13.5875 38.9997 13.6939 38.965L19.4835 37.0806C19.9105 36.9417 20.2825 36.6711 20.5463 36.3078C20.8101 35.9445 20.9522 35.507 20.9522 35.0579V20.1743C20.9522 19.7253 20.8101 19.2878 20.5463 18.9245C20.2825 18.5611 19.9105 18.2906 19.4835 18.1517L13.6939 16.2672C13.5875 16.2326 13.4744 16.2236 13.3639 16.2411C13.2533 16.2586 13.1485 16.302 13.0579 16.3678C12.9674 16.4336 12.8937 16.5198 12.8429 16.6196C12.7921 16.7193 12.7656 16.8297 12.7656 16.9416Z" fill="white"/>
</svg>
